<svg version="1.2" xmlns="http://www.w3.org/2000/svg" viewBox="0 0 387 386" width="387" height="386">
	<style>
		.s0 { opacity: 1;fill: #b7d6ef } 
		.s1 { opacity: 1;fill: #141d24 } 
		.s2 { fill: #b7d6ef } 
	</style>
	<g id="Layer 4">
		<path id="Path 0" class="s0" d="m133 0.63c-1.93 0.21-7.78 1.11-13 2-5.22 0.88-14 3.07-19.5 4.86-5.5 1.79-14.28 5.4-19.5 8.02-5.22 2.62-12.88 7.05-17 9.84-4.13 2.8-10.63 7.8-14.46 11.12-3.82 3.31-9.85 9.41-13.39 13.53-3.53 4.13-8.79 11.1-11.67 15.5-2.88 4.4-7.04 11.6-9.24 16-2.2 4.4-5.37 12.05-7.05 17-1.68 4.95-3.79 12.6-4.68 17-0.89 4.4-2.03 12.28-2.54 17.5-0.5 5.22-0.93 32-0.94 59.5-0.02 27.5 0.43 54.95 1 61 0.56 6.05 2.16 15.73 3.54 21.5 1.39 5.77 4.14 14.55 6.12 19.5 1.97 4.95 5.74 12.82 8.36 17.5 2.62 4.68 7.88 12.55 11.69 17.5 3.81 4.95 10.94 12.76 15.84 17.35 4.91 4.59 12.97 11.06 17.92 14.36 4.95 3.31 13.05 7.97 18 10.36 4.95 2.4 13.05 5.66 18 7.27 4.95 1.6 13.5 3.75 19 4.79 9.13 1.71 15.67 1.87 75 1.87 63.31 0 65.26-0.06 75-2.2 5.5-1.22 14.05-3.63 19-5.37 4.95-1.74 12.6-4.96 17-7.15 4.4-2.2 11.6-6.38 16-9.3 4.4-2.92 11.27-8.16 15.27-11.64 4-3.49 10.01-9.49 13.35-13.34 3.35-3.85 8.23-10.15 10.85-14 2.61-3.85 6.79-11.05 9.28-16 2.48-4.95 5.87-12.82 7.53-17.5 1.65-4.68 4.07-13.23 5.36-19 2.35-10.46 2.36-10.77 2.36-77 0-66.23-0.01-66.54-2.36-77-1.29-5.78-3.7-14.32-5.34-19-1.64-4.67-5.44-13.22-8.43-19-2.99-5.78-8.3-14.32-11.8-19-3.49-4.67-10.79-12.79-16.21-18.04-5.42-5.25-14.36-12.54-19.86-16.2-5.5-3.65-13.82-8.42-18.5-10.58-4.68-2.16-12.89-5.34-18.25-7.05-5.36-1.72-13.46-3.87-18-4.77-7.03-1.41-17.3-1.68-69.25-1.88-33.55-0.12-62.57-0.06-64.5 0.15z"/>
		<path id="Path 1" fill-rule="evenodd" class="s1" d="m197 2.39c60.65 0.25 63.93 0.35 73 2.39 5.23 1.17 13.55 3.55 18.5 5.29 4.95 1.74 12.38 4.86 16.5 6.93 4.13 2.07 11.77 6.62 17 10.12 5.23 3.49 13.83 10.64 19.12 15.87 5.29 5.23 12.28 13.11 15.52 17.51 3.25 4.4 8.45 12.95 11.56 19 3.12 6.05 6.99 15.05 8.62 20 1.62 4.95 3.79 12.83 4.82 17.5 1.71 7.83 1.86 13.85 1.86 76 0 61.43-0.16 68.26-1.82 76-0.99 4.68-3.17 12.55-4.82 17.5-1.66 4.95-4.73 12.6-6.83 17-2.1 4.4-6.65 12.27-10.11 17.5-4.02 6.07-10.47 13.66-17.86 21.02-6.36 6.34-14.94 13.83-19.06 16.64-4.13 2.81-12 7.38-17.5 10.16-5.5 2.77-14.27 6.45-19.5 8.17-5.23 1.72-14.68 4.02-21 5.1-10.81 1.86-15.34 1.96-76 1.62-57.01-0.31-65.37-0.56-72-2.1-4.13-0.96-12-3.24-17.5-5.05-5.5-1.82-13.38-5-17.5-7.06-4.13-2.07-10.43-5.65-14-7.96-3.58-2.31-10.07-7.09-14.44-10.62-4.37-3.53-11.28-10.24-15.36-14.92-4.08-4.68-9.65-11.88-12.38-16-2.73-4.13-6.91-11.55-9.29-16.5-2.38-4.95-5.68-13.27-7.34-18.5-1.67-5.23-3.85-13.55-4.86-18.5-1.66-8.17-1.83-14.91-1.83-73 0-57.33 0.19-64.99 1.79-73.5 0.99-5.22 3.3-14 5.13-19.5 1.83-5.5 5.59-14.5 8.35-20 2.77-5.5 7.88-13.99 11.38-18.88 3.49-4.88 10.17-12.69 14.85-17.37 4.67-4.67 11.42-10.67 15-13.34 3.57-2.66 9.87-6.86 14-9.32 4.12-2.46 11.78-6.27 17-8.45 5.22-2.19 13.32-4.96 18-6.14 4.67-1.19 12.32-2.77 17-3.51 6.63-1.06 22.48-1.3 72-1.1zm189.75 164.11c0.16 14.3 0.16 37.92 0 52.5-0.16 14.57-0.28 2.87-0.28-26 0-28.88 0.12-40.8 0.28-26.5zm-49.44-130.51c0.44 0.01 3.59 2.94 7 6.52 3.4 3.58 5.96 6.51 5.69 6.51-0.27 0-3.43-2.93-7-6.52-3.57-3.59-6.14-6.51-5.69-6.51z"/>
		<path id="Path 2" class="s2" d="m136.08 188.42l-0.08 87.58c72.64-0.64 79.55-0.95 85.5-2.45 3.85-0.97 9.7-3.04 13-4.59 3.3-1.56 7.98-4.78 10.39-7.15 2.42-2.37 5.67-7.01 7.24-10.31 1.59-3.35 3.39-9.54 4.06-14 0.94-6.24 0.95-10.09 0.01-17.5-0.69-5.47-2.18-11.62-3.5-14.5-1.26-2.75-4.13-7.02-6.36-9.5-2.24-2.47-6.72-5.92-9.96-7.65-3.23-1.73-8.58-3.73-11.88-4.44l-6-1.3c7.75-1.71 12.22-3.31 14.93-4.66 2.72-1.35 6.68-4.47 8.81-6.95 2.12-2.47 4.69-6.75 5.69-9.5 1.01-2.75 2.14-7.7 2.52-11 0.37-3.3 0.19-9.15-0.41-13-0.6-3.85-2.38-9.7-3.96-13-1.65-3.46-4.71-7.64-7.22-9.87-2.4-2.14-7.06-5.16-10.36-6.72-3.3-1.56-8.7-3.6-12-4.54-5.03-1.43-12.02-1.77-43.17-2.12l-37.16-0.42z"/>
		<path id="Path 3" class="s1" d="m169.07 148.94l-0.07 20.06c32.4-0.47 34.99-0.75 38.5-2.56 2.74-1.41 4.71-3.45 6.26-6.5 1.65-3.24 2.26-6.19 2.27-10.94 0.01-4.82-0.57-7.63-2.26-10.89q-2.27-4.39-6.27-6.5c-3.53-1.86-6-2.15-21.18-2.42l-17.19-0.32zm0.27 73.72l0.17 25.85c15.5 0.43 24.05 0.1 29-0.46 5.68-0.64 10.63-1.85 13.42-3.28 3.34-1.7 5.06-3.5 6.99-7.26 2.13-4.19 2.55-6.39 2.57-13.5q0.01-8.5-1.7-13c-0.95-2.48-2.97-5.72-4.5-7.2-1.53-1.48-4.58-3.49-6.78-4.46-3.19-1.4-7.62-1.84-21.67-2.15l-17.67-0.39z"/>
	</g>
</svg>