<svg version="1.2" xmlns="http://www.w3.org/2000/svg" viewBox="0 0 387 386" width="387" height="386">
	<style>
		.s0 { opacity: 1;fill: #ebce9a } 
		.s1 { opacity: 1;fill: #201a12 } 
	</style>
	<g id="Background">
		<path id="Path 0" class="s0" d="m133 0.64c-1.93 0.21-7.78 1.08-13 1.93-5.22 0.84-14.22 3.11-20 5.04-5.78 1.92-14.55 5.55-19.5 8.05-4.95 2.5-13.05 7.31-18 10.68-4.95 3.38-13.73 10.87-19.51 16.65-5.96 5.96-13.3 14.62-16.95 20.01-3.54 5.22-8.8 14.45-11.69 20.5-2.89 6.05-6.41 15.05-7.84 20-1.43 4.95-3.36 13.05-4.3 18-1.5 7.88-1.71 16.71-1.71 71 0 55.9 0.18 63.03 1.85 72.5 1.02 5.77 3.41 15.23 5.3 21 1.9 5.77 5.43 14.55 7.86 19.5 2.42 4.95 7.2 13.05 10.62 18 3.43 4.95 11.21 13.97 17.3 20.04 6.97 6.95 14.77 13.5 21.07 17.69 5.5 3.66 13.83 8.45 18.5 10.64 4.67 2.19 12.1 5.19 16.5 6.65 4.4 1.47 12.28 3.64 17.5 4.83 9.21 2.08 11.53 2.15 76 2.15 64.87 0 66.75-0.05 76.5-2.2 5.5-1.22 14.05-3.63 19-5.37 4.95-1.74 13.05-5.2 18-7.68 4.95-2.49 11.7-6.33 15-8.54 3.3-2.22 9.8-7.22 14.44-11.12 4.65-3.9 11.44-10.69 15.09-15.09 3.66-4.4 8.61-10.93 11-14.5 2.39-3.57 6.46-10.77 9.05-16 2.58-5.23 5.85-12.88 7.25-17 1.4-4.13 3.59-11.77 4.86-17 2.29-9.44 2.31-9.92 2.31-77 0-67.28-0.01-67.53-2.36-78-1.29-5.78-3.7-14.33-5.34-19-1.64-4.68-5.43-13.22-8.41-19-2.98-5.78-8.28-14.33-11.78-19-3.5-4.68-11.04-13-16.76-18.5-5.71-5.5-13.98-12.39-18.37-15.32-4.39-2.92-12.48-7.51-17.98-10.2-5.5-2.69-13.37-6-17.5-7.37-4.12-1.36-12-3.48-17.5-4.71-9.69-2.16-11.92-2.24-71.5-2.44-33.82-0.11-63.07-0.03-65 0.18z"/>
		<path id="Path 1" fill-rule="evenodd" class="s1" d="m197.5 2.42c59.78 0.22 63.46 0.34 72 2.31 4.95 1.14 12.6 3.28 17 4.75 4.4 1.47 11.82 4.46 16.5 6.65 4.68 2.19 13 6.98 18.5 10.63 6.27 4.17 13.92 10.58 20.51 17.19 5.78 5.8 13.26 14.6 16.62 19.55 3.37 4.95 8.15 13.05 10.63 18 2.48 4.95 5.94 13.28 7.69 18.5 1.75 5.22 4.09 14.9 5.19 21.5 1.91 11.36 2 15.42 1.23 141l-2.56 10.5c-1.4 5.77-4.24 14.77-6.3 20-2.06 5.23-5.76 13.1-8.21 17.5-2.46 4.4-6.39 10.7-8.74 14-2.34 3.3-8.04 10-12.66 14.88-4.62 4.89-12.67 12.11-17.9 16.04-5.23 3.93-14.45 9.66-20.5 12.73-6.05 3.08-15.27 6.98-20.5 8.68-5.23 1.7-13.32 3.89-18 4.88-7.68 1.62-14.9 1.79-75 1.79-66.05 0-66.57-0.02-77-2.34-5.78-1.29-14.78-3.91-20-5.84-5.22-1.93-13.33-5.54-18-8.03-4.68-2.49-11.43-6.61-15-9.15-3.58-2.55-9.6-7.33-13.4-10.64-3.79-3.3-9.68-9.38-13.08-13.5-3.4-4.13-8.01-10.2-10.24-13.5-2.23-3.3-6.11-10.05-8.61-15-2.51-4.95-6.14-13.73-8.07-19.5-1.93-5.77-4.32-14.77-5.31-20-1.6-8.51-1.79-16.15-1.79-73 0-62.69 0.03-63.65 2.35-75 1.29-6.33 3.7-15.33 5.36-20 1.66-4.68 4.82-12.1 7.01-16.5 2.2-4.4 6.53-11.83 9.62-16.5 3.1-4.68 10.2-13.22 15.78-19 5.58-5.78 13.69-13.06 18.01-16.18 4.33-3.12 11.24-7.54 15.37-9.8 4.12-2.27 11.55-5.74 16.5-7.71 4.95-1.97 13.05-4.61 18-5.86 4.95-1.26 12.37-2.73 16.5-3.27 4.39-0.58 33.59-0.89 70.5-0.76zm189.25 164.58c0.16 14.02 0.16 37.2 0 51.5-0.16 14.3-0.29 2.82-0.29-25.5 0-28.33 0.13-40.03 0.29-26zm-49.44-131.01c0.44 0.01 3.59 2.94 7 6.52 3.4 3.58 5.96 6.51 5.69 6.51-0.27 0-3.43-2.93-7-6.52-3.57-3.59-6.14-6.51-5.69-6.51z"/>
		<path id="Path 2" class="s0" d="m162 116.5v15.5h42c-0.01 80.99-0.37 97.79-1.14 100.5-0.62 2.2-2.08 5.47-3.24 7.27-1.28 1.98-4.3 4.32-7.62 5.93-4.7 2.26-6.73 2.64-14 2.55-6.43-0.07-10.45-0.75-16.5-2.8-4.4-1.49-10.47-4.33-13.5-6.3-3.03-1.97-5.73-3.82-6.02-4.12-0.29-0.29-2.21-2.1-4.27-4.03l-3.75-3.5 0.04 40.5c12.01 4.85 19.78 7.39 25 8.77 8.06 2.14 11.62 2.52 23.5 2.48 11.07-0.03 15.67-0.49 22-2.19 4.4-1.18 10.19-3.37 12.87-4.86 2.68-1.48 6.62-4.61 8.75-6.95 2.13-2.34 4.96-6.39 6.28-9 1.32-2.61 3.2-7.45 4.18-10.75 1.63-5.47 1.82-12.13 2.07-75.25l0.27-69.25h-76.92z"/>
	</g>
</svg>