<svg version="1.2" xmlns="http://www.w3.org/2000/svg" viewBox="0 0 387 386" width="387" height="386">
	<style>
		.s0 { opacity: .8;fill: #3d3050 } 
		.s1 { fill: #966cc7 } 
		.s2 { fill: #ac7be5 } 
		.s3 { fill: #bf88fd } 
		.s4 { opacity: 1;fill: #463758 } 
		.s5 { fill: #2e233a } 
		.s6 { opacity: 1;fill: #1b1422 } 
		.s7 { opacity: 1;fill: #f1e6ff } 
	</style>
	<g id="Background">
		<path id="Path 0" class="s0" d="m386.46 193c0 28.32 0.13 39.8 0.29 25.5 0.16-14.3 0.16-37.47 0-51.5-0.16-14.03-0.29-2.32-0.29 26z"/>
		<path id="Path 1" class="s1" d="m0.47 193c0 28.88 0.12 40.57 0.28 26 0.16-14.57 0.16-38.2 0-52.5-0.16-14.3-0.28-2.38-0.28 26.5z"/>
		<path id="Path 2" class="s2" d="m167.5 0.75c14.85 0.16 38.7 0.16 53 0 14.3-0.16 2.15-0.28-27-0.28-29.15 0-40.85 0.12-26 0.28z"/>
		<path id="Path 3" class="s3" d="m122 2.45c-4.13 0.71-11.1 2.28-15.5 3.49-4.4 1.21-12.05 3.88-17 5.95-4.95 2.06-12.15 5.58-16 7.82-3.85 2.24-10.6 6.74-15 10.01-4.4 3.27-12.27 10.43-17.5 15.9-5.23 5.48-11.81 13.31-14.64 17.42-2.82 4.1-7.4 11.96-10.16 17.46-2.77 5.5-6.24 13.6-7.72 18-1.48 4.4-3.62 11.82-4.76 16.5-1.97 8.06-2.09 11.86-2.45 73-0.32 53.73-0.13 66.17 1.12 74.5 0.83 5.5 2.65 13.94 4.06 18.75 1.4 4.81 4.36 12.91 6.57 18 2.2 5.09 6.37 13 9.25 17.59 2.87 4.59 8.67 12.46 12.89 17.5 4.21 5.04 10.28 11.46 13.5 14.26 3.21 2.81 9.21 7.54 13.34 10.51 4.13 2.96 11.1 7.27 15.5 9.56 4.4 2.29 11.6 5.59 16 7.33 4.4 1.74 12.5 4.25 18 5.57 5.5 1.32 15.4 2.9 22 3.51 7.86 0.72 31.3 0.95 68 0.64 46.77-0.38 57.4-0.73 64.5-2.12 4.68-0.91 12.1-2.75 16.5-4.08 4.4-1.32 11.6-3.95 16-5.83 4.4-1.88 11.6-5.55 16-8.16 4.4-2.61 11.6-7.55 16-10.98 4.4-3.43 11.76-10.25 16.35-15.15 4.59-4.89 11.06-12.95 14.36-17.9 3.31-4.95 7.94-13.05 10.3-18 2.35-4.95 5.68-13.39 7.39-18.75 1.7-5.36 3.89-13.91 4.85-19 1.55-8.2 1.75-16.46 1.75-72.75 0-56.85-0.19-64.49-1.79-73-0.99-5.22-3.38-14.22-5.32-20-1.94-5.78-5.57-14.55-8.09-19.5-2.51-4.95-6.85-12.38-9.65-16.5-2.79-4.13-7.8-10.63-11.12-14.46-3.31-3.82-9.41-9.85-13.53-13.39-4.13-3.53-11.32-8.93-16-11.99-4.68-3.06-12.55-7.45-17.5-9.75-4.95-2.3-11.93-5.18-15.5-6.39-3.57-1.21-10.32-3.15-15-4.3-8.14-2-11.31-2.1-75.5-2.33-51.05-0.17-68.79 0.08-74.5 1.06z"/>
		<path id="Path 4" class="s4" d="m2.47 193c0 28.88 0.12 40.57 0.28 26 0.16-14.57 0.16-38.2 0-52.5-0.16-14.3-0.28-2.38-0.28 26.5z"/>
		<path id="Path 5" class="s5" d="m167.5 2.75c14.85 0.16 38.7 0.16 53 0 14.3-0.16 2.15-0.28-27-0.28-29.15 0-40.85 0.12-26 0.28z"/>
		<path id="Path 6" class="s1" d="m384.47 193c0 28.88 0.12 40.57 0.28 26 0.16-14.57 0.16-38.2 0-52.5-0.16-14.3-0.28-2.38-0.28 26.5z"/>
		<path id="Path 7" class="s2" d="m168 384.75c14.57 0.16 37.97 0.16 52 0 14.03-0.16 2.1-0.29-26.5-0.28-28.6 0-40.07 0.12-25.5 0.28z"/>
		<path id="Path 8" class="s3" d="m278.5 6.53c4.95 1.41 12.82 4.12 17.5 6.03 4.68 1.9 12.1 5.55 16.5 8.1 4.4 2.55 11.15 6.99 15 9.87 3.85 2.88 10.82 9.06 15.5 13.74 4.68 4.68 11.06 12.04 14.18 16.37 3.13 4.32 7.93 12.14 10.68 17.36 2.75 5.22 6.18 12.65 7.63 16.5 1.45 3.85 3.73 11.5 5.06 17 1.33 5.5 2.92 15.4 3.53 22 0.72 7.86 0.95 31.3 0.64 68-0.38 46.64-0.74 57.42-2.11 64.5-0.91 4.68-2.98 12.77-4.59 18-1.61 5.23-5.25 14.23-8.08 20-2.84 5.77-6.98 13.2-9.21 16.5-2.23 3.3-7.24 9.8-11.14 14.44-3.9 4.65-10.69 11.45-15.09 15.13-4.4 3.67-11.15 8.71-15 11.18-3.85 2.47-10.37 6.19-14.5 8.25-4.12 2.06-9.75 4.63-12.5 5.71-2.75 1.08-8.82 3.02-13.5 4.3-4.68 1.29-7.6 2.37-6.5 2.41 1.1 0.04 5.6-1.03 10-2.37 4.4-1.34 11.6-3.98 16-5.86 4.4-1.88 11.6-5.55 16-8.16 4.4-2.61 11.6-7.55 16-10.98 4.4-3.43 11.76-10.25 16.35-15.15 4.59-4.89 11.06-12.95 14.36-17.9 3.31-4.95 7.94-13.05 10.3-18 2.35-4.95 5.68-13.39 7.39-18.75 1.7-5.36 3.89-13.91 4.85-19 1.55-8.2 1.75-16.46 1.75-72.75 0-56.85-0.19-64.49-1.79-73-0.99-5.22-3.38-14.22-5.32-20-1.94-5.78-5.57-14.55-8.09-19.5-2.51-4.95-6.85-12.38-9.65-16.5-2.79-4.13-7.8-10.63-11.12-14.46-3.31-3.82-9.4-9.85-13.53-13.39-4.12-3.53-11.32-8.93-16-11.99-4.68-3.06-12.55-7.45-17.5-9.76-4.95-2.31-12.6-5.39-17-6.84-4.4-1.45-9.8-2.85-12-3.11-2.2-0.26 0.05 0.68 5 2.08z"/>
		<path id="Path 9" class="s6" d="m121.5 4.56c-4.4 0.74-12.05 2.52-17 3.94-4.95 1.43-13.95 4.97-20 7.86-6.05 2.89-13.92 7.21-17.5 9.61-3.58 2.39-10.31 7.54-14.96 11.44-4.65 3.9-11.63 10.92-15.51 15.59-3.89 4.67-9.17 11.88-11.75 16-2.57 4.13-6.45 11.33-8.62 16-2.17 4.67-5.07 11.88-6.43 16-1.37 4.13-3.33 11.33-4.36 16-1.72 7.84-1.87 13.77-1.87 76 0 62.15 0.15 68.17 1.86 76 1.03 4.68 3.11 12.32 4.63 17 1.52 4.68 4.84 12.66 7.39 17.75 2.54 5.09 6.13 11.61 7.98 14.5 1.85 2.89 6.06 8.63 9.36 12.75 3.3 4.13 9.15 10.43 13 14 3.85 3.57 10.55 9.06 14.89 12.19 4.34 3.13 12.39 7.98 17.89 10.79 5.5 2.8 14.72 6.62 20.5 8.48 5.78 1.87 14.78 4.21 20 5.22 8.57 1.64 15.64 1.82 72 1.82 56.65 0 63.44-0.17 72.5-1.86 5.5-1.02 14.5-3.32 20-5.12 5.5-1.79 13.82-5.17 18.5-7.5 4.68-2.33 12.32-6.77 17-9.86 4.68-3.1 13.23-10.19 19-15.77 5.77-5.57 13.36-14.13 16.85-19.01 3.5-4.88 8.61-13.38 11.38-18.88 2.76-5.5 6.52-14.5 8.35-20 1.83-5.5 4.14-14.27 5.13-19.5 1.6-8.5 1.79-16.13 1.79-72.5 0-57.3-0.17-63.9-1.87-73-1.03-5.5-3.33-14.5-5.12-20-1.79-5.5-5.17-13.83-7.52-18.5-2.35-4.67-5.43-10.3-6.84-12.5-1.42-2.2-5.34-7.6-8.72-12-3.38-4.4-10.14-11.77-15.04-16.39-4.89-4.61-13.16-11.22-18.39-14.69-5.23-3.47-13.32-8.08-18-10.24-4.68-2.16-12.77-5.29-18-6.95-5.23-1.67-13.77-3.75-19-4.63-8.09-1.37-18.86-1.6-72.5-1.5-47.9 0.08-64.92 0.43-71 1.46z"/>
		<path id="Path 10" class="s4" d="m241.41 126c0 9.63 0.15 13.45 0.33 8.5 0.19-4.95 0.19-12.83 0-17.5-0.18-4.67-0.33-0.63-0.33 9zm-105 123.5c0 9.9 0.15 13.73 0.34 8.5 0.18-5.22 0.18-13.32-0.01-18-0.18-4.68-0.33-0.4-0.33 9.5z"/>
		<path id="Path 11" class="s7" d="m173 101.1c-4.13 1.09-9.73 3.2-12.45 4.69-2.72 1.49-7.26 4.96-10.1 7.71-2.83 2.75-6.51 7.7-8.18 11-1.67 3.3-3.58 8.47-4.26 11.5-0.75 3.35-1.06 9.61-0.78 16 0.33 7.76 1.05 12.07 2.76 16.5 1.69 4.38 3.96 7.63 8.41 12.04 4.76 4.7 8.63 7.26 17.6 11.63 6.32 3.09 17.12 7.75 24 10.37 6.87 2.62 14.3 6.05 16.5 7.62 2.2 1.56 5.12 4.5 6.5 6.52 1.93 2.84 2.59 5.29 2.9 10.75 0.33 5.94 0.01 7.85-2 11.98-1.32 2.7-3.53 5.7-4.9 6.68-1.38 0.97-4.53 2.5-7 3.4-2.94 1.07-7.63 1.63-13.5 1.61-5.53-0.01-11.89-0.76-16.5-1.93-4.13-1.06-10.88-3.47-15-5.36-4.13-1.89-10.09-5.1-13.25-7.12-3.16-2.03-5.97-3.69-6.25-3.69-0.28 0-0.39 7.69-0.25 17.08l0.25 17.08c10.85 4.67 18.28 7.19 23.5 8.61 8.5 2.31 11.4 2.59 27.5 2.66 15.84 0.06 18.93-0.2 25.75-2.18 4.26-1.24 10.11-3.45 13-4.91 2.89-1.46 7.53-4.95 10.31-7.75 2.79-2.8 6.24-7.57 7.68-10.59 1.44-3.02 3.15-7.75 3.81-10.5 0.66-2.75 1.19-9.72 1.19-15.5-0.01-7.87-0.53-12.13-2.09-17-1.14-3.57-3.44-8.64-5.11-11.25-1.67-2.61-5.03-6.66-7.46-9-2.44-2.34-7.05-5.82-10.25-7.75-3.2-1.93-13.47-6.46-22.82-10.07-9.36-3.62-18.81-7.51-21.01-8.64-2.2-1.14-5.29-3.36-6.87-4.93-1.57-1.57-3.26-3.87-3.75-5.11-0.48-1.24-0.88-4.72-0.88-7.75 0-3.02 0.68-6.85 1.5-8.5 0.82-1.65 2.96-4.1 4.75-5.45 1.79-1.34 6.18-3.2 9.75-4.12 4.71-1.21 8.57-1.51 14-1.07 4.12 0.33 10.65 1.56 14.5 2.74 3.85 1.17 10.15 3.71 14 5.64 3.85 1.93 8.24 4.35 9.75 5.39l2.75 1.87v-33c-13.56-4.81-21.55-7.05-26.5-8.09-6.15-1.29-12.96-1.87-21.5-1.84-9.19 0.03-14.49 0.57-20 2.03z"/>
	</g>
</svg>